<svg xmlns="http://www.w3.org/2000/svg" xmlns:xlink="http://www.w3.org/1999/xlink" id="visual" viewBox="0 0 900 600" width="900" height="600" version="1.1"><rect x="0" y="0" width="900" height="600" fill="#001220"/><defs><linearGradient id="grad1_0" x1="33.3%" y1="0%" x2="100%" y2="100%"><stop offset="20%" stop-color="#001220" stop-opacity="1"/><stop offset="80%" stop-color="#001220" stop-opacity="1"/></linearGradient></defs><defs><linearGradient id="grad2_0" x1="0%" y1="0%" x2="66.7%" y2="100%"><stop offset="20%" stop-color="#001220" stop-opacity="1"/><stop offset="80%" stop-color="#001220" stop-opacity="1"/></linearGradient></defs><g transform="translate(900, 0)"><path d="M0 324.5C-38.9 308.3 -77.7 292 -114 275.3C-150.4 258.6 -184.2 241.3 -217.1 217.1C-250 192.8 -282 161.5 -299.8 124.2C-317.6 86.8 -321 43.4 -324.5 0L0 0Z" fill="#FA7268"/></g><g transform="translate(0, 600)"><path d="M0 -324.5C41.6 -318.2 83.1 -311.9 123.2 -297.5C163.3 -283.1 202 -260.6 229.5 -229.5C257 -198.4 273.3 -158.7 287.3 -119C301.3 -79.3 312.9 -39.7 324.5 0L0 0Z" fill="#FA7268"/></g></svg>