<svg xmlns="http://www.w3.org/2000/svg" xmlns:xlink="http://www.w3.org/1999/xlink" id="visual" viewBox="0 0 900 600" width="900" height="600" version="1.1"><rect x="0" y="0" width="900" height="600" fill="#001220"/><path d="M731 600L722.8 585.7C714.7 571.3 698.3 542.7 694.5 514.2C690.7 485.7 699.3 457.3 694.5 428.8C689.7 400.3 671.3 371.7 672.8 343C674.3 314.3 695.7 285.7 694 257C692.3 228.3 667.7 199.7 659.8 171.2C652 142.7 661 114.3 672.8 85.8C684.7 57.3 699.3 28.7 706.7 14.3L714 0L900 0L900 14.3C900 28.7 900 57.3 900 85.8C900 114.3 900 142.7 900 171.2C900 199.7 900 228.3 900 257C900 285.7 900 314.3 900 343C900 371.7 900 400.3 900 428.8C900 457.3 900 485.7 900 514.2C900 542.7 900 571.3 900 585.7L900 600Z" fill="#FA7268" stroke-linecap="round" stroke-linejoin="miter"/></svg>